<svg xmlns="http://www.w3.org/2000/svg" viewBox="0 0 1024 1024">
    <g transform="translate(0,1024) scale(0.1,-0.1)" fill="currentColor" stroke="none">
        <path d="M4535 8164 c-81 -9 -262 -46 -342 -70 -257 -77 -490 -219 -675 -412
    -175 -183 -293 -389 -359 -630 -18 -66 -26 -83 -43 -87 -12 -2 -52 -9 -90 -15
    -292 -47 -597 -229 -781 -465 -375 -483 -379 -1145 -10 -1641 207 -278 534
    -467 915 -531 52 -9 97 -17 99 -19 2 -2 14 -74 26 -161 13 -87 37 -246 54
    -353 71 -454 110 -857 120 -1246 7 -290 7 -291 35 -347 60 -124 182 -185 345
    -174 116 8 255 29 576 88 1348 249 1692 299 2260 329 413 22 533 39 635 90
    110 56 180 154 180 255 0 28 -16 124 -34 215 -19 91 -55 262 -80 380 -68 325
    -246 1367 -246 1438 0 12 32 32 106 66 161 75 273 154 405 285 275 273 403
    580 403 966 -1 296 -70 523 -234 768 -185 277 -462 477 -790 571 -137 39 -233
    50 -410 50 -178 -1 -305 -21 -444 -69 -39 -14 -71 -23 -71 -22 -86 141 -268
    340 -405 443 -105 79 -335 195 -455 229 -155 45 -306 66 -485 70 -91 2 -183 1
    -205 -1z m518 -362 c136 -36 291 -106 404 -184 90 -61 229 -195 297 -286 l47
    -62 -108 -108 c-176 -174 -313 -389 -313 -490 0 -81 59 -148 138 -159 61 -8
    125 26 159 85 162 289 323 443 549 528 418 157 875 53 1181 -269 182 -192 278
    -417 290 -682 14 -306 -102 -594 -325 -813 -122 -119 -315 -235 -438 -262 -96
    -21 -154 -83 -154 -163 0 -31 181 -1176 195 -1236 5 -19 3 -22 -10 -17 -33 12
    -297 46 -455 57 -200 14 -613 6 -820 -16 -500 -54 -1042 -176 -1450 -327 -139
    -51 -417 -180 -471 -219 -16 -11 -32 -20 -33 -18 -2 2 -9 49 -15 104 -7 55
    -48 354 -92 665 -90 631 -89 627 -169 668 -33 16 -62 22 -111 22 -193 0 -436
    77 -609 192 -372 248 -541 738 -399 1161 132 395 522 691 871 661 66 -6 83 -4
    120 15 60 29 84 70 108 186 37 180 86 305 174 440 181 277 507 485 861 550 58
    10 133 13 270 11 173 -3 201 -6 308 -34z m1525 -4387 c177 -19 332 -49 387
    -75 86 -42 97 -63 144 -285 23 -110 41 -208 41 -217 0 -38 -43 -50 -207 -59
    -782 -44 -1312 -115 -2593 -349 -272 -49 -509 -90 -527 -90 -21 0 -36 6 -41
    18 -5 9 -12 112 -16 228 l-7 211 79 51 c420 269 1150 485 1887 556 88 9 174
    17 190 19 90 11 529 6 663 -8z"/>
    </g>
</svg>