<svg viewBox="0 0 18 20" fill="none" xmlns="http://www.w3.org/2000/svg">
    <path fill-rule="evenodd" clip-rule="evenodd"
          d="M0.670752 8.50623C0.382475 9.00219 0.184606 9.39304 0.0791796 9.62732C-0.0263932 9.86193 -0.0263932 10.1381 0.0791796 10.3727C0.184606 10.607 0.382475 10.9978 0.670752 11.4938C1.14788 12.3146 1.71084 13.135 2.3591 13.9033C4.24598 16.1396 6.46515 17.5 9 17.5C11.5349 17.5 13.754 16.1396 15.6409 13.9033C16.2892 13.135 16.8521 12.3146 17.3292 11.4938C17.6175 10.9978 17.8154 10.607 17.9208 10.3727C18.0264 10.1381 18.0264 9.86193 17.9208 9.62732C17.8154 9.39304 17.6175 9.00219 17.3292 8.50623C16.8521 7.68537 16.2892 6.86501 15.6409 6.09672C13.754 3.86041 11.5349 2.5 9 2.5C6.46515 2.5 4.24598 3.86041 2.3591 6.09672C1.71084 6.86501 1.14788 7.68537 0.670752 8.50623ZM3.4534 12.7634C2.87119 12.0733 2.36189 11.3312 1.93081 10.5896C1.80846 10.3791 1.69994 10.1814 1.60553 10C1.69994 9.81864 1.80846 9.62094 1.93081 9.41044C2.36189 8.6688 2.87119 7.92665 3.4534 7.23662C5.08214 5.30626 6.9411 4.16667 9 4.16667C11.0589 4.16667 12.9179 5.30626 14.5466 7.23662C15.1288 7.92665 15.6381 8.6688 16.0692 9.41044C16.1915 9.62094 16.3001 9.81864 16.3945 10C16.3001 10.1814 16.1915 10.3791 16.0692 10.5896C15.6381 11.3312 15.1288 12.0733 14.5466 12.7634C12.9179 14.6937 11.0589 15.8333 9 15.8333C6.9411 15.8333 5.08214 14.6937 3.4534 12.7634ZM9 13.3333C7.34315 13.3333 6 11.8409 6 10C6 8.15905 7.34315 6.66667 9 6.66667C10.6569 6.66667 12 8.15905 12 10C12 11.8409 10.6569 13.3333 9 13.3333ZM10.5 10C10.5 10.9205 9.82843 11.6667 9 11.6667C8.17157 11.6667 7.5 10.9205 7.5 10C7.5 9.07952 8.17157 8.33333 9 8.33333C9.82843 8.33333 10.5 9.07952 10.5 10Z"
          fill="currentColor"/>
    <mask id="mask0_8070_3576" style="mask-type:luminance" maskUnits="userSpaceOnUse" x="0" y="2" width="18"
          height="16">
        <path fill-rule="evenodd" clip-rule="evenodd"
              d="M0.670752 8.50623C0.382475 9.00219 0.184606 9.39304 0.0791796 9.62732C-0.0263932 9.86193 -0.0263932 10.1381 0.0791796 10.3727C0.184606 10.607 0.382475 10.9978 0.670752 11.4938C1.14788 12.3146 1.71084 13.135 2.3591 13.9033C4.24598 16.1396 6.46515 17.5 9 17.5C11.5349 17.5 13.754 16.1396 15.6409 13.9033C16.2892 13.135 16.8521 12.3146 17.3292 11.4938C17.6175 10.9978 17.8154 10.607 17.9208 10.3727C18.0264 10.1381 18.0264 9.86193 17.9208 9.62732C17.8154 9.39304 17.6175 9.00219 17.3292 8.50623C16.8521 7.68537 16.2892 6.86501 15.6409 6.09672C13.754 3.86041 11.5349 2.5 9 2.5C6.46515 2.5 4.24598 3.86041 2.3591 6.09672C1.71084 6.86501 1.14788 7.68537 0.670752 8.50623ZM3.4534 12.7634C2.87119 12.0733 2.36189 11.3312 1.93081 10.5896C1.80846 10.3791 1.69994 10.1814 1.60553 10C1.69994 9.81864 1.80846 9.62094 1.93081 9.41044C2.36189 8.6688 2.87119 7.92665 3.4534 7.23662C5.08214 5.30626 6.9411 4.16667 9 4.16667C11.0589 4.16667 12.9179 5.30626 14.5466 7.23662C15.1288 7.92665 15.6381 8.6688 16.0692 9.41044C16.1915 9.62094 16.3001 9.81864 16.3945 10C16.3001 10.1814 16.1915 10.3791 16.0692 10.5896C15.6381 11.3312 15.1288 12.0733 14.5466 12.7634C12.9179 14.6937 11.0589 15.8333 9 15.8333C6.9411 15.8333 5.08214 14.6937 3.4534 12.7634ZM9 13.3333C7.34315 13.3333 6 11.8409 6 10C6 8.15905 7.34315 6.66667 9 6.66667C10.6569 6.66667 12 8.15905 12 10C12 11.8409 10.6569 13.3333 9 13.3333ZM10.5 10C10.5 10.9205 9.82843 11.6667 9 11.6667C8.17157 11.6667 7.5 10.9205 7.5 10C7.5 9.07952 8.17157 8.33333 9 8.33333C9.82843 8.33333 10.5 9.07952 10.5 10Z"
              fill="white"/>
    </mask>
</svg>
