<svg viewBox="0 0 18 20" fill="none" xmlns="http://www.w3.org/2000/svg">
<path fill-rule="evenodd" clip-rule="evenodd" d="M3.42636 4.98557L0.21967 1.42259C-0.0732232 1.09715 -0.0732232 0.569515 0.21967 0.244078C0.512563 -0.0813592 0.987437 -0.0813592 1.28033 0.244078L5.06658 4.45102C5.07204 4.4569 5.07743 4.46289 5.08275 4.46899L7.93748 7.64091C7.93916 7.64276 7.94084 7.64462 7.94251 7.64649L11.1182 11.175C11.1199 11.1769 11.1215 11.1787 11.1231 11.1805L13.9766 14.351C13.982 14.3569 13.9874 14.3629 13.9928 14.369L17.7803 18.5774C18.0732 18.9028 18.0732 19.4305 17.7803 19.7559C17.4874 20.0814 17.0126 20.0814 16.7197 19.7559L13.3696 16.0336C12.072 16.9613 10.5621 17.4717 9 17.5C6.46515 17.5 4.24598 16.1396 2.3591 13.9033C1.71084 13.135 1.14788 12.3146 0.670752 11.4938C0.382475 10.9978 0.184606 10.607 0.0791797 10.3727C-0.029804 10.1305 -0.0260921 9.84457 0.0891333 9.60598C0.937766 7.84875 2.06977 6.28305 3.42636 4.98557ZM4.49032 6.16776C3.33773 7.25115 2.362 8.54848 1.60692 10.0027C1.701 10.1833 1.80906 10.3801 1.93081 10.5896C2.36189 11.3312 2.87119 12.0733 3.4534 12.7634C5.08214 14.6937 6.9411 15.8333 8.98774 15.8334C10.149 15.8123 11.281 15.4615 12.2786 14.8213L10.5374 12.8867C9.8509 13.3648 9.00798 13.5209 8.20155 13.292C7.13862 12.9904 6.30862 12.0682 6.03717 10.8872C5.83122 9.99113 5.97169 9.05455 6.40197 8.29182L4.49032 6.16776ZM7.52092 9.53509C7.4314 9.83338 7.41797 10.1591 7.49052 10.4748C7.62625 11.0653 8.04125 11.5264 8.57271 11.6772C8.85681 11.7578 9.14996 11.7429 9.41842 11.6434L7.52092 9.53509ZM15.1471 13.296C14.8302 12.9996 14.7894 12.474 15.0561 12.1218C15.5579 11.4592 16.0054 10.7485 16.3935 9.99812C16.2993 9.81728 16.1911 9.62021 16.0692 9.41044C15.6381 8.6688 15.1288 7.92665 14.5466 7.23662C12.9179 5.30626 11.0589 4.16667 8.99824 4.16666C8.52617 4.16543 8.05558 4.22519 7.59593 4.34473C7.19262 4.44963 6.78914 4.17139 6.69474 3.72326C6.60033 3.27514 6.85075 2.82683 7.25406 2.72193C7.82692 2.57294 8.41342 2.49847 9 2.5C11.5349 2.5 13.754 3.86041 15.6409 6.09672C16.2892 6.86502 16.8521 7.68537 17.3292 8.50623C17.6175 9.00219 17.8154 9.39304 17.9208 9.62732C18.0296 9.86909 18.0261 10.1545 17.9114 10.3928C17.4316 11.3903 16.8593 12.3294 16.2039 13.1949C15.9372 13.547 15.4641 13.5923 15.1471 13.296Z" fill="black"/>
<mask id="mask0_8070_2990" style="mask-type:luminance" maskUnits="userSpaceOnUse" x="0" y="0" width="18" height="20">
<path fill-rule="evenodd" clip-rule="evenodd" d="M3.42636 4.98557L0.21967 1.42259C-0.0732232 1.09715 -0.0732232 0.569515 0.21967 0.244078C0.512563 -0.0813592 0.987437 -0.0813592 1.28033 0.244078L5.06658 4.45102C5.07204 4.4569 5.07743 4.46289 5.08275 4.46899L7.93748 7.64091C7.93916 7.64276 7.94084 7.64462 7.94251 7.64649L11.1182 11.175C11.1199 11.1769 11.1215 11.1787 11.1231 11.1805L13.9766 14.351C13.982 14.3569 13.9874 14.3629 13.9928 14.369L17.7803 18.5774C18.0732 18.9028 18.0732 19.4305 17.7803 19.7559C17.4874 20.0814 17.0126 20.0814 16.7197 19.7559L13.3696 16.0336C12.072 16.9613 10.5621 17.4717 9 17.5C6.46515 17.5 4.24598 16.1396 2.3591 13.9033C1.71084 13.135 1.14788 12.3146 0.670752 11.4938C0.382475 10.9978 0.184606 10.607 0.0791797 10.3727C-0.029804 10.1305 -0.0260921 9.84457 0.0891333 9.60598C0.937766 7.84875 2.06977 6.28305 3.42636 4.98557ZM4.49032 6.16776C3.33773 7.25115 2.362 8.54848 1.60692 10.0027C1.701 10.1833 1.80906 10.3801 1.93081 10.5896C2.36189 11.3312 2.87119 12.0733 3.4534 12.7634C5.08214 14.6937 6.9411 15.8333 8.98774 15.8334C10.149 15.8123 11.281 15.4615 12.2786 14.8213L10.5374 12.8867C9.8509 13.3648 9.00798 13.5209 8.20155 13.292C7.13862 12.9904 6.30862 12.0682 6.03717 10.8872C5.83122 9.99113 5.97169 9.05455 6.40197 8.29182L4.49032 6.16776ZM7.52092 9.53509C7.4314 9.83338 7.41797 10.1591 7.49052 10.4748C7.62625 11.0653 8.04125 11.5264 8.57271 11.6772C8.85681 11.7578 9.14996 11.7429 9.41842 11.6434L7.52092 9.53509ZM15.1471 13.296C14.8302 12.9996 14.7894 12.474 15.0561 12.1218C15.5579 11.4592 16.0054 10.7485 16.3935 9.99812C16.2993 9.81728 16.1911 9.62021 16.0692 9.41044C15.6381 8.6688 15.1288 7.92665 14.5466 7.23662C12.9179 5.30626 11.0589 4.16667 8.99824 4.16666C8.52617 4.16543 8.05558 4.22519 7.59593 4.34473C7.19262 4.44963 6.78914 4.17139 6.69474 3.72326C6.60033 3.27514 6.85075 2.82683 7.25406 2.72193C7.82692 2.57294 8.41342 2.49847 9 2.5C11.5349 2.5 13.754 3.86041 15.6409 6.09672C16.2892 6.86502 16.8521 7.68537 17.3292 8.50623C17.6175 9.00219 17.8154 9.39304 17.9208 9.62732C18.0296 9.86909 18.0261 10.1545 17.9114 10.3928C17.4316 11.3903 16.8593 12.3294 16.2039 13.1949C15.9372 13.547 15.4641 13.5923 15.1471 13.296Z" fill="white"/>
</mask>
<g mask="url(#mask0_8070_2990)">
</g>
</svg>
