<?xml version="1.0" encoding="UTF-8"?>
<svg width="25px" height="25px" viewBox="0 0 25 25" version="1.1" xmlns="http://www.w3.org/2000/svg" xmlns:xlink="http://www.w3.org/1999/xlink">
    <title>facebook</title>
    <g id="POC-Desktop" stroke="none" stroke-width="1" fill="none" fill-rule="evenodd">
        <g id="01_00_Dashboard" transform="translate(-642.000000, -1498.000000)" fill="#000000">
            <g id="Composants-/-Web-/-footer" transform="translate(0.000000, 1363.000000)">
                <g id="Icones-/-Facebook" transform="translate(642.000000, 135.000000)">
                    <path d="M12.5,0 C19.4035594,0 25,5.59644063 25,12.5 C25,19.4035594 19.4035594,25 12.5,25 C5.59644063,25 0,19.4035594 0,12.5 C0,5.59644063 5.59644063,0 12.5,0 Z M12.5,1.13636364 C6.22403693,1.13636364 1.13636364,6.22403693 1.13636364,12.5 C1.13636364,18.7759631 6.22403693,23.8636364 12.5,23.8636364 C18.7759631,23.8636364 23.8636364,18.7759631 23.8636364,12.5 C23.8636364,6.22403693 18.7759631,1.13636364 12.5,1.13636364 Z M15.3282084,6.81818182 L15.3282084,9.07071934 L14.1724474,9.07071934 C13.3075317,9.07071934 13.2503787,9.38538176 13.2503787,9.97264164 L13.2465685,11.0997352 L15.3409091,11.0997352 L15.0957861,13.3514479 L13.2465685,13.3514479 L13.2465685,19.8863636 L10.4757055,19.8863636 L10.4757055,13.3514479 L9.09090909,13.3514479 L9.09090909,11.0997352 L10.4757055,11.0997352 L10.4757055,9.74788277 C10.4757055,7.91104605 11.2572201,6.81818182 13.4789908,6.81818182 L15.3282084,6.81818182 Z" id="Combined-Shape"></path>
                </g>
            </g>
        </g>
    </g>
</svg>