<svg width="20" height="20" viewBox="0 0 20 20" fill="none" xmlns="http://www.w3.org/2000/svg">
<path fill-rule="evenodd" clip-rule="evenodd" d="M8.7474 15.8346C4.83538 15.8346 1.66406 12.6633 1.66406 8.7513C1.66406 4.83928 4.83538 1.66797 8.7474 1.66797C12.6594 1.66797 15.8307 4.83928 15.8307 8.7513C15.8307 10.407 15.2626 11.9301 14.3108 13.1361L18.0867 16.912C18.4121 17.2375 18.4121 17.7651 18.0867 18.0906C17.7612 18.416 17.2336 18.416 16.9081 18.0906L13.1322 14.3147C11.9262 15.2665 10.4031 15.8346 8.7474 15.8346ZM12.5239 12.6344C11.5482 13.5835 10.216 14.168 8.7474 14.168C5.75585 14.168 3.33073 11.7428 3.33073 8.7513C3.33073 5.75976 5.75585 3.33464 8.7474 3.33464C11.7389 3.33464 14.1641 5.75976 14.1641 8.7513C14.1641 10.2199 13.5796 11.5521 12.6305 12.5278C12.6114 12.5437 12.5928 12.5607 12.5748 12.5787C12.5568 12.5967 12.5398 12.6153 12.5239 12.6344Z" fill="currentColor"/>
<mask id="mask0_24501_106787" style="mask-type:luminance" maskUnits="userSpaceOnUse" x="1" y="1" width="18" height="18">
<path fill-rule="evenodd" clip-rule="evenodd" d="M8.7474 15.8346C4.83538 15.8346 1.66406 12.6633 1.66406 8.7513C1.66406 4.83928 4.83538 1.66797 8.7474 1.66797C12.6594 1.66797 15.8307 4.83928 15.8307 8.7513C15.8307 10.407 15.2626 11.9301 14.3108 13.1361L18.0867 16.912C18.4121 17.2375 18.4121 17.7651 18.0867 18.0906C17.7612 18.416 17.2336 18.416 16.9081 18.0906L13.1322 14.3147C11.9262 15.2665 10.4031 15.8346 8.7474 15.8346ZM12.5239 12.6344C11.5482 13.5835 10.216 14.168 8.7474 14.168C5.75585 14.168 3.33073 11.7428 3.33073 8.7513C3.33073 5.75976 5.75585 3.33464 8.7474 3.33464C11.7389 3.33464 14.1641 5.75976 14.1641 8.7513C14.1641 10.2199 13.5796 11.5521 12.6305 12.5278C12.6114 12.5437 12.5928 12.5607 12.5748 12.5787C12.5568 12.5967 12.5398 12.6153 12.5239 12.6344Z" fill="white"/>
</mask>
</svg>
